<svg version="1.1" xmlns="http://www.w3.org/2000/svg" xmlns:xlink="http://www.w3.org/1999/xlink" width="628.03904" height="441.63498" viewBox="0,0,628.03904,441.63498"><defs><linearGradient x1="240" y1="-26" x2="240" y2="386" gradientUnits="userSpaceOnUse" id="color-1"><stop offset="0" stop-color="#000000"/><stop offset="1" stop-color="#160e00"/></linearGradient><linearGradient x1="240" y1="177.71922" x2="240" y2="401.5" gradientUnits="userSpaceOnUse" id="color-2"><stop offset="0" stop-color="#ff0000" stop-opacity="0"/><stop offset="1" stop-color="#ff0000"/></linearGradient></defs><g transform="translate(86.03153,40.13498)"><g data-paper-data="{&quot;isPaintingLayer&quot;:true}" fill-rule="nonzero" stroke="none" stroke-linecap="butt" stroke-linejoin="miter" stroke-miterlimit="10" stroke-dasharray="" stroke-dashoffset="0" style="mix-blend-mode: normal"><path d="M-37.5,386v-412h555v412z" fill="url(#color-1)" stroke-width="0"/><path d="M241.5045,354.48649c-144.97475,0 -262.5,-31.33066 -262.5,-69.97898c0,-38.64832 117.52525,-69.97898 262.5,-69.97898c144.97475,0 262.5,31.33066 262.5,69.97898c0,38.64832 -117.52525,69.97898 -262.5,69.97898z" fill="#1f0a00" stroke-width="0"/><path d="M499.0045,284.50751c0,37.3742 -114.6151,67.67198 -256,67.67198c-141.38489,0 -256,-30.29778 -256,-67.67198c0,-37.3742 114.61511,-67.67198 256,-67.67198c141.38489,0 256,30.29778 256,67.67198z" fill="#381000" stroke-width="0"/><path d="M498.0045,283.35401c0,35.46302 -114.6151,64.21148 -256,64.21148c-141.38489,0 -256,-28.74846 -256,-64.21148c0,-35.46302 114.61511,-64.21148 256,-64.21148c141.38489,0 256,28.74846 256,64.21148z" fill="#752100" stroke-width="0"/><path d="M499.0045,282.58501c0,32.06537 -114.6151,58.05948 -256,58.05948c-141.3849,0 -256,-25.99412 -256,-58.05948c0,-32.06537 114.6151,-58.05948 256,-58.05948c141.3849,0 256,25.99412 256,58.05948z" fill="#a32f00" stroke-width="0"/><path d="M502.0045,281.43151c0,22.93417 -116.85368,41.52599 -261,41.52599c-144.14632,0 -261,-18.59182 -261,-41.52599c0,-22.93417 116.85368,-41.52599 261,-41.52599c144.14632,0 261,18.59182 261,41.52599z" fill="#c73900" stroke-width="NaN"/><path d="M-54.5,401.5l-31.53153,-441.63498l628.03904,45.45946l-7.50751,396.17552z" fill="url(#color-2)" stroke-width="0"/></g></g></svg>