<svg version="1.1" xmlns="http://www.w3.org/2000/svg" xmlns:xlink="http://www.w3.org/1999/xlink" width="717.36937" height="573.18121" viewBox="0,0,717.36937,573.18121"><defs><linearGradient x1="241.8938" y1="178.41788" x2="241.8938" y2="354.5905" gradientUnits="userSpaceOnUse" id="color-1"><stop offset="0" stop-color="#1f1400"/><stop offset="1" stop-color="#000000" stop-opacity="0"/></linearGradient><linearGradient x1="243.78192" y1="181.32182" x2="243.78192" y2="351.68656" gradientUnits="userSpaceOnUse" id="color-2"><stop offset="0" stop-color="#382400"/><stop offset="1" stop-color="#000000" stop-opacity="0"/></linearGradient><linearGradient x1="242.52317" y1="184.22577" x2="242.52317" y2="345.87867" gradientUnits="userSpaceOnUse" id="color-3"><stop offset="0" stop-color="#754c00"/><stop offset="1" stop-color="#000000" stop-opacity="0"/></linearGradient><linearGradient x1="243.78192" y1="191.00164" x2="243.78192" y2="337.16684" gradientUnits="userSpaceOnUse" id="color-4"><stop offset="0" stop-color="#a36a00"/><stop offset="1" stop-color="#000000" stop-opacity="0"/></linearGradient><linearGradient x1="241.26442" y1="210.36126" x2="241.26442" y2="314.90326" gradientUnits="userSpaceOnUse" id="color-5"><stop offset="0" stop-color="#c78100"/><stop offset="1" stop-color="#000000" stop-opacity="0"/></linearGradient><linearGradient x1="75.75527" y1="140.5854" x2="368.23764" y2="137.94444" gradientTransform="translate(-129.8733,-257.84247) rotate(0.51714) scale(1.74359,1.74359)" gradientUnits="userSpaceOnUse" id="color-6"><stop offset="0" stop-color="#ff0a0a"/><stop offset="1" stop-color="#0ac6ff"/></linearGradient><linearGradient x1="53.7933" y1="140.73889" x2="422.12581" y2="136.07823" gradientTransform="translate(-72.01028,-207.31392) rotate(0.72475) scale(1.38449,1.38449)" gradientUnits="userSpaceOnUse" id="color-7"><stop offset="0" stop-color="#ff0a0a"/><stop offset="1" stop-color="#0ac6ff"/></linearGradient><radialGradient cx="244.54298" cy="197.93159" r="214.84367" gradientTransform="translate(-26.31304,-128.24173) rotate(-3.21008) scale(0.632,0.632)" gradientUnits="userSpaceOnUse" id="color-8"><stop offset="0" stop-color="#000000"/><stop offset="1" stop-color="#000000"/></radialGradient><linearGradient x1="248.75219" y1="152.43793" x2="240.33379" y2="243.42524" gradientTransform="translate(-26.31304,-128.24173) rotate(-3.21008) scale(0.632,0.632)" gradientUnits="userSpaceOnUse" id="color-9"><stop offset="0" stop-color="#ffffff"/><stop offset="1" stop-color="#750000"/></linearGradient><linearGradient x1="29.3782" y1="195.78643" x2="412.03799" y2="206.55288" gradientTransform="translate(-28.46439,-128.5293) rotate(-4.21995) scale(0.632,0.632)" gradientUnits="userSpaceOnUse" id="color-10"><stop offset="0" stop-color="#ff0000" stop-opacity="0"/><stop offset="1" stop-color="#ff0000"/></linearGradient><linearGradient x1="26.37969" y1="195.69144" x2="409.03947" y2="206.45789" gradientTransform="translate(-26.57004,-128.60891) rotate(-4.21994) scale(0.632,0.632)" gradientUnits="userSpaceOnUse" id="color-11"><stop offset="0" stop-color="#0e0aff"/><stop offset="1" stop-color="#2f0000"/></linearGradient><linearGradient x1="239.25075" y1="241.83286" x2="239.25075" y2="448.83286" gradientUnits="userSpaceOnUse" id="color-12"><stop offset="0" stop-color="#ff0000" stop-opacity="0"/><stop offset="1" stop-color="#ff0000"/></linearGradient></defs><g transform="translate(119.43393,124.34835)"><g data-paper-data="{&quot;isPaintingLayer&quot;:true}" fill-rule="nonzero" stroke-linecap="butt" stroke-linejoin="miter" stroke-miterlimit="10" stroke-dasharray="" stroke-dashoffset="0" style="mix-blend-mode: normal"><path d="M-109.30421,394.25826v-518.60661h698.60841v518.60661z" fill="#000000" stroke="none" stroke-width="0"/><g stroke="none"><path d="M241.8938,354.5905c-182.48753,0 -330.4229,-39.43759 -330.4229,-88.08631c0,-48.64872 147.93537,-88.08631 330.4229,-88.08631c182.48753,0 330.4229,39.43759 330.4229,88.08631c0,48.64872 -147.93537,88.08631 -330.4229,88.08631z" fill="url(#color-1)" stroke-width="0"/><path d="M566.02292,266.50419c0,47.04492 -144.2722,85.18237 -322.241,85.18237c-177.96878,0 -322.241,-38.13745 -322.241,-85.18237c0,-47.04492 144.27222,-85.18237 322.241,-85.18237c177.96878,0 322.241,38.13745 322.241,85.18237z" fill="url(#color-2)" stroke-width="0"/><path d="M564.76417,265.05222c0,44.63921 -144.2722,80.82645 -322.241,80.82645c-177.96878,0 -322.241,-36.18724 -322.241,-80.82645c0,-44.63921 144.27222,-80.82645 322.241,-80.82645c177.96878,0 322.241,36.18724 322.241,80.82645z" fill="url(#color-3)" stroke-width="0"/><path d="M566.02292,264.08424c0,40.36241 -144.2722,73.0826 -322.241,73.0826c-177.96879,0 -322.241,-32.7202 -322.241,-73.0826c0,-40.36241 144.2722,-73.0826 322.241,-73.0826c177.96879,0 322.241,32.7202 322.241,73.0826z" fill="url(#color-4)" stroke-width="0"/><path d="M569.79919,262.63226c0,28.86848 -147.09003,52.271 -328.53477,52.271c-181.44474,0 -328.53477,-23.40253 -328.53477,-52.271c0,-28.86848 147.09003,-52.271 328.53477,-52.271c181.44474,0 328.53477,23.40253 328.53477,52.271z" fill="url(#color-5)" stroke-width="NaN"/></g><text transform="translate(75.81792,147.20208) rotate(-0.51714) scale(0.57353,0.57353)" font-size="40" xml:space="preserve" fill="url(#color-6)" fill-rule="nonzero" stroke="#000000" stroke-width="7" stroke-linecap="butt" stroke-linejoin="miter" stroke-miterlimit="10" stroke-dasharray="" stroke-dashoffset="0" font-family="Pixel" font-weight="normal" text-anchor="start" style="mix-blend-mode: normal"><tspan x="0" dy="0">ADD YOURSELF SINGING</tspan></text><text transform="translate(53.90221,149.07089) rotate(-0.72475) scale(0.72229,0.72229)" font-size="40" xml:space="preserve" fill="url(#color-7)" fill-rule="nonzero" stroke="#ffffff" stroke-width="1" stroke-linecap="butt" stroke-linejoin="miter" stroke-miterlimit="10" stroke-dasharray="" stroke-dashoffset="0" font-family="Serif" font-weight="normal" text-anchor="start" style="mix-blend-mode: normal"><tspan x="0" dy="0">ADD YOURSELF SINGING</tspan></text><g font-weight="normal" font-size="40" text-anchor="start"><text transform="translate(30.20665,204.92735) rotate(3.21008) scale(1.58228,1.58228)" font-size="40" xml:space="preserve" fill="url(#color-8)" fill-rule="nonzero" stroke="url(#color-9)" stroke-width="5" stroke-linecap="butt" stroke-linejoin="miter" stroke-miterlimit="10" stroke-dasharray="" stroke-dashoffset="0" font-family="Malgun Gothic" font-weight="normal" text-anchor="start" style="mix-blend-mode: normal"><tspan x="0" dy="0">Lost My Mind</tspan></text><text transform="translate(29.95151,206.13217) rotate(4.21995) scale(1.58228,1.58228)" font-size="40" xml:space="preserve" fill="url(#color-10)" fill-rule="nonzero" stroke-opacity="0" stroke="#000000" stroke-width="0" stroke-linecap="butt" stroke-linejoin="miter" stroke-miterlimit="10" stroke-dasharray="" stroke-dashoffset="0" font-family="Sans Serif" font-weight="normal" text-anchor="start" style="mix-blend-mode: normal"><tspan x="0" dy="0">Lost My Mind</tspan></text><text transform="translate(26.95301,206.03723) rotate(4.21994) scale(1.58228,1.58228)" font-size="40" xml:space="preserve" fill="url(#color-11)" fill-rule="nonzero" stroke-opacity="0" stroke="#000000" stroke-width="0" stroke-linecap="butt" stroke-linejoin="miter" stroke-miterlimit="10" stroke-dasharray="" stroke-dashoffset="0" font-family="Sans Serif" font-weight="normal" text-anchor="start" style="mix-blend-mode: normal"><tspan x="0" dy="0">Lost My Mind</tspan></text></g><path d="M-119.43393,448.83286v-207h717.36937v207z" fill="url(#color-12)" stroke="none" stroke-width="0"/><text transform="translate(21.93765,316.25871) rotate(-0.38491) scale(2.9113,2.9113)" font-size="40" xml:space="preserve" fill="#ffffff" fill-rule="nonzero" stroke="none" stroke-width="1" stroke-linecap="butt" stroke-linejoin="miter" stroke-miterlimit="10" stroke-dasharray="" stroke-dashoffset="0" font-family="Serif" font-weight="normal" text-anchor="start" style="mix-blend-mode: normal"><tspan x="0" dy="0">(Canned)</tspan></text></g></g></svg>